<svg width="13" height="13" viewBox="0 0 13 13" fill="none" xmlns="http://www.w3.org/2000/svg">
<g clip-path="url(#clip0_284_763)">
<path d="M6.5 0C6.94941 0 7.3125 0.363086 7.3125 0.8125V1.69355C9.35391 2.03379 10.9662 3.64609 11.3064 5.6875H12.1875C12.6369 5.6875 13 6.05059 13 6.5C13 6.94941 12.6369 7.3125 12.1875 7.3125H11.3064C10.9662 9.35391 9.35391 10.9662 7.3125 11.3064V12.1875C7.3125 12.6369 6.94941 13 6.5 13C6.05059 13 5.6875 12.6369 5.6875 12.1875V11.3064C3.64609 10.9662 2.03379 9.35391 1.69355 7.3125H0.8125C0.363086 7.3125 0 6.94941 0 6.5C0 6.05059 0.363086 5.6875 0.8125 5.6875H1.69355C2.03379 3.64609 3.64609 2.03379 5.6875 1.69355V0.8125C5.6875 0.363086 6.05059 0 6.5 0ZM3.25 6.5C3.25 7.36195 3.59241 8.1886 4.2019 8.7981C4.8114 9.40759 5.63805 9.75 6.5 9.75C7.36195 9.75 8.1886 9.40759 8.7981 8.7981C9.40759 8.1886 9.75 7.36195 9.75 6.5C9.75 5.63805 9.40759 4.8114 8.7981 4.2019C8.1886 3.59241 7.36195 3.25 6.5 3.25C5.63805 3.25 4.8114 3.59241 4.2019 4.2019C3.59241 4.8114 3.25 5.63805 3.25 6.5ZM6.5 4.46875C7.03872 4.46875 7.55538 4.68276 7.93631 5.06369C8.31724 5.44462 8.53125 5.96128 8.53125 6.5C8.53125 7.03872 8.31724 7.55538 7.93631 7.93631C7.55538 8.31724 7.03872 8.53125 6.5 8.53125C5.96128 8.53125 5.44462 8.31724 5.06369 7.93631C4.68276 7.55538 4.46875 7.03872 4.46875 6.5C4.46875 5.96128 4.68276 5.44462 5.06369 5.06369C5.44462 4.68276 5.96128 4.46875 6.5 4.46875Z" fill="#616161"/>
</g>
<defs>
<clipPath id="clip0_284_763">
<rect width="13" height="13" fill="white"/>
</clipPath>
</defs>
</svg>
